<svg width="143" height="61" viewBox="0 0 143 61" fill="none" xmlns="http://www.w3.org/2000/svg">
<path d="M2.65462 17.8942C2.9008 17.8362 27.4963 12.0149 46.0151 3.86077C48.0752 2.95377 49.7431 2.41607 51.1481 2.16267C49.574 3.73727 40.314 7.66267 47.7096 8.35827C54.4954 8.99717 43.3172 16.9908 38.1929 19.897C24.7142 24.1397 15.9663 25.8059 15.809 25.8355L15.9945 26.8171C16.0404 26.8084 16.8239 26.6593 18.2417 26.3479C25.6718 24.7154 50.6134 18.6021 79.2281 4.63167C83.2409 2.67247 86.516 1.58597 89.2724 1.18277C88.4643 5.29857 79.1083 14.4 94.0501 16.6982C107.678 18.7942 80.3487 24.1161 70.1632 26.8258C68.6942 27.2167 67.5813 27.5533 67.0001 27.8177C62.5031 29.8654 114.781 28.0235 138.159 27.9302C138.922 27.9569 139.7 27.9722 140.5 27.9722V26.9733C119.619 26.9733 112.223 17.4936 106.28 9.87657C100.105 1.96087 95.227 -4.29228 78.7844 3.73527C74.9637 5.59947 71.1012 7.37817 67.2 9.07017C63.7525 7.85217 61.6645 6.10037 59.8353 4.56267C56.4293 1.69947 53.9682 -0.369561 45.7438 3.25247C27.2824 11.3806 2.74551 17.1886 2.5 17.2462L2.65462 17.8942Z" fill="#FDFDFD"/>
<path d="M6.732 54.7802V43.5002H11.628C12.46 43.5002 13.164 43.6388 13.74 43.9162C14.316 44.1935 14.7533 44.5935 15.052 45.1162C15.3507 45.6388 15.5 46.2735 15.5 47.0202C15.5 47.7562 15.3507 48.3908 15.052 48.9242C14.7533 49.4468 14.316 49.8522 13.74 50.1402C13.164 50.4175 12.46 50.5562 11.628 50.5562H8.78V54.7802H6.732ZM8.78 48.9402H11.308C12.0333 48.9402 12.5827 48.7802 12.956 48.4602C13.3293 48.1295 13.516 47.6495 13.516 47.0202C13.516 46.3908 13.3293 45.9162 12.956 45.5962C12.5827 45.2762 12.0333 45.1162 11.308 45.1162H8.78V48.9402ZM25.2335 54.7802L27.1535 51.0202V51.6602L22.1135 43.5002H24.3055L28.1455 49.8202H27.7775L30.9935 43.5002H33.1055L27.3615 54.7802H25.2335ZM40.564 54.7802V43.5002H42.276L46.532 51.3562H46.02L50.26 43.5002H51.94V54.7802H50.084V46.5402H50.436L46.852 53.0682H45.652L42.036 46.5242H42.42V54.7802H40.564ZM63.5426 54.7802V45.2122H59.6706V43.5002H69.4626V45.2122H65.5906V54.7802H63.5426ZM77.1601 54.7802V43.5002H79.0641V51.9162H78.6961L85.1281 43.5002H86.6641V54.7802H84.7601V46.3482H85.1121L78.6801 54.7802H77.1601ZM95.5289 54.7802V43.5002H103.369V45.1322H97.4969V48.2042H100.633C101.433 48.2042 102.121 48.3322 102.697 48.5882C103.273 48.8335 103.71 49.2015 104.009 49.6922C104.318 50.1722 104.473 50.7695 104.473 51.4842C104.473 52.1988 104.318 52.8015 104.009 53.2922C103.71 53.7828 103.273 54.1562 102.697 54.4122C102.121 54.6575 101.433 54.7802 100.633 54.7802H95.5289ZM97.4969 53.1482H100.377C101.102 53.1482 101.636 53.0148 101.977 52.7482C102.318 52.4708 102.489 52.0495 102.489 51.4842C102.489 50.9188 102.318 50.5028 101.977 50.2362C101.636 49.9695 101.102 49.8362 100.377 49.8362H97.4969V53.1482ZM112.695 54.7802V43.5002H120.199V45.1322H114.663V48.2362H119.847V49.8682H114.663V53.1482H120.199V54.7802H112.695ZM131.283 54.7802V45.2122H127.411V43.5002H137.203V45.2122H133.331V54.7802H131.283Z" fill="white"/>
</svg>
